<svg t="1688693932572" class="icon" viewBox="0 0 1024 1024" version="1.1" xmlns="http://www.w3.org/2000/svg" p-id="35660" width="200" height="200"><path d="M756.363636 1024 267.636364 1024c-30.794473 0-55.854545-25.060073-55.854545-55.854545L211.781818 55.854545c0-30.794473 25.060073-55.854545 55.854545-55.854545l488.727273 0c30.794473 0 55.854545 25.060073 55.854545 55.854545l0 912.290909C812.218182 998.939927 787.158109 1024 756.363636 1024zM267.636364 37.236364C257.377745 37.236364 249.018182 45.577309 249.018182 55.854545l0 912.290909c0 10.277236 8.359564 18.618182 18.618182 18.618182l488.727273 0c10.258618 0 18.618182-8.340945 18.618182-18.618182L774.981818 55.854545c0-10.277236-8.359564-18.618182-18.618182-18.618182L267.636364 37.236364z" fill="#ffffff" p-id="35661"></path><path d="M239.709091 86.891055l535.272727 0 0 37.236364-535.272727 0 0-37.236364Z" fill="#ffffff" p-id="35662"></path><path d="M249.018182 806.781673l535.272727 0 0 37.236364-535.272727 0 0-37.236364Z" fill="#ffffff" p-id="35663"></path><path d="M512 968.387491c-30.9248 0-56.096582-25.171782-56.096582-56.096582s25.171782-56.096582 56.096582-56.096582 56.096582 25.171782 56.096582 56.096582S542.9248 968.387491 512 968.387491zM512 893.430691c-10.407564 0-18.860218 8.452655-18.860218 18.860218s8.452655 18.860218 18.860218 18.860218 18.860218-8.452655 18.860218-18.860218S522.407564 893.430691 512 893.430691z" fill="#ffffff" p-id="35664"></path><path d="M629.257309 363.073164c4.263564 0 7.856873 1.2288 10.761309 3.723636 2.904436 2.476218 4.356655 5.510982 4.356655 9.104291l0 75.3664c0 3.425745-1.452218 6.367418-4.356655 8.843636-2.904436 2.476218-6.497745 3.723636-10.761309 3.723636l-4.859345 0c-4.096 0-7.596218-1.247418-10.500655-3.723636-2.904436-2.476218-4.356655-5.417891-4.356655-8.843636l0-75.3664c0-3.593309 1.452218-6.628073 4.356655-9.104291 2.904436-2.476218 6.404655-3.723636 10.500655-3.723636L629.257309 363.073164 629.257309 363.073164 629.257309 363.073164zM408.129164 363.073164c4.096 0 7.521745 1.2288 10.258618 3.723636 2.736873 2.476218 4.096 5.510982 4.096 9.104291l0 75.3664c0 3.425745-1.359127 6.367418-4.096 8.843636-2.736873 2.476218-6.144 3.723636-10.258618 3.723636l-4.859345 0c-4.263564 0-7.856873-1.247418-10.761309-3.723636-2.904436-2.476218-4.356655-5.436509-4.356655-8.843636l0-75.3664c0-3.593309 1.452218-6.628073 4.356655-9.104291 2.904436-2.476218 6.497745-3.723636 10.761309-3.723636L408.129164 363.073164 408.129164 363.073164 408.129164 363.073164zM558.806109 303.588073c3.239564 1.377745 6.628073 3.258182 10.128291 5.641309 3.500218 2.383127 6.925964 5.213091 10.258618 8.452655 3.332655 3.239564 6.199855 6.795636 8.582982 10.630982 2.383127 3.853964 4.189091 7.894109 5.380655 12.176291l-155.014982 0c2.904436-9.048436 7.465891-16.495709 13.702982-22.304582 6.237091-5.808873 12.604509-10.426182 19.083636-13.851927l-14.093964-20.517236c-0.335127-0.335127-0.390982-0.930909-0.130327-1.787345 0.260655-0.856436 1.247418-1.787345 2.941673-2.811345 1.545309-1.210182 2.904436-1.750109 4.096-1.657018 1.191564 0.093091 2.048 0.297891 2.569309 0.633018l14.093964 20.759273c5.12-2.215564 10.500655-3.928436 16.141964-5.12 5.641309-1.191564 11.450182-1.787345 17.426618-1.787345 12.306618 0 23.831273 2.383127 34.592582 7.168l14.596655-21.019927c0.335127-0.335127 0.986764-0.521309 1.917673-0.521309 0.930909 0 2.438982 0.521309 4.486982 1.545309 1.880436 0.856436 2.941673 1.619782 3.202327 2.308655 0.260655 0.688873 0.2048 1.191564-0.130327 1.545309L558.806109 303.588073 558.806109 303.588073zM482.564655 325.632c2.308655 0 4.263564-0.763345 5.901964-2.308655 1.619782-1.545309 2.438982-3.425745 2.438982-5.641309 0-2.215564-0.8192-4.096-2.438982-5.641309-1.619782-1.545309-3.593309-2.308655-5.901964-2.308655s-4.319418 0.763345-6.013673 2.308655c-1.712873 1.545309-2.569309 3.425745-2.569309 5.641309 0 2.215564 0.856436 4.096 2.569309 5.641309C478.263855 324.868655 480.256 325.632 482.564655 325.632L482.564655 325.632 482.564655 325.632zM549.701818 324.608c2.308655 0 4.263564-0.763345 5.901964-2.308655 1.619782-1.545309 2.438982-3.425745 2.438982-5.641309 0-2.215564-0.8192-4.096-2.438982-5.641309-1.619782-1.545309-3.593309-2.308655-5.901964-2.308655-2.308655 0-4.319418 0.763345-6.013673 2.308655-1.712873 1.545309-2.569309 3.425745-2.569309 5.641309 0 2.215564 0.856436 4.096 2.569309 5.641309C545.3824 323.844655 547.393164 324.608 549.701818 324.608L549.701818 324.608 549.701818 324.608zM593.138036 356.649891l0.260655 115.0976c0 3.760873-1.321891 6.925964-3.965673 9.476655-2.643782 2.569309-5.846109 3.835345-9.606982 3.835345l-3.835345 0 0 35.895855c0 3.425745-1.321891 6.404655-3.965673 8.973964-2.643782 2.569309-5.9392 3.853964-9.867636 3.853964l-7.689309 0c-3.760873 0-6.9632-1.284655-9.606982-3.853964-2.643782-2.569309-3.965673-5.548218-3.965673-8.973964l0-35.895855-50.213236 0 0 35.895855c0 3.425745-1.284655 6.404655-3.835345 8.973964-2.569309 2.569309-5.808873 3.853964-9.737309 3.853964l-7.949964 0c-3.593309 0-6.702545-1.284655-9.346327-3.853964-2.643782-2.569309-3.965673-5.548218-3.965673-8.973964l0-35.895855-3.072 0c-3.760873 0-6.9632-1.284655-9.606982-3.835345-2.643782-2.569309-3.965673-5.715782-3.965673-9.476655l0-115.0976L593.138036 356.649891 593.138036 356.649891 593.138036 356.649891zM593.138036 356.649891" fill="#ffffff" p-id="35665"></path></svg>