<svg t="1688654431008" class="icon" viewBox="0 0 1024 1024" version="1.1" xmlns="http://www.w3.org/2000/svg" p-id="3568" width="128" height="128"><path d="M216.801043 485.335732c-15.578615-14.381094-39.881255-13.407543-54.260543 2.174685-14.391931 15.578615-13.416575 39.872224 2.162041 54.262349l188.791143 174.26194c41.553812 38.360421 106.337371 35.766695 144.697793-5.785311l388.950613-421.366776c14.3829-15.593065 13.416575-39.884868-2.172879-54.26235-15.580422-14.390125-39.872224-13.414768-54.262349 2.163848-129.641173 140.45499-259.298602 280.90998-388.950613 421.366776-12.278658 13.306395-22.866698 13.723631-36.173093 1.446779-62.930381-58.089722-125.851732-116.175831-188.782113-174.26194z" fill="#ffffff" p-id="3569"></path><path d="M947.191556 102.392595v844.799864H102.39711c-18.100093 0-25.599503-7.490379-25.599503-25.599503V102.392595c0-18.098287 7.49941-25.597697 25.599503-25.597698h819.194943c18.110931 0 25.599503 7.501216 25.599503 25.597698zM102.39711 1024h819.194943c56.556244 0 102.405238-45.852606 102.405238-102.405238V102.394401C1023.999097 45.839963 978.148297 0 921.592053 0H102.39711C45.842672 0 0.000903 45.839963 0.000903 102.392595v819.200361c0 56.554438 45.841769 102.407044 102.396207 102.407044z" fill="#ffffff" p-id="3570"></path></svg>