<svg t="1689424372606" class="icon" viewBox="0 0 1024 1024" version="1.1" xmlns="http://www.w3.org/2000/svg" p-id="6840" width="200" height="200"><path d="M748.373333 818.56a21.333333 21.333333 0 0 0 42.666667 0c0-149.333333-97.066667-275.2-230.826667-301.013333a262.826667 262.826667 0 0 0-97.493333 0c-133.973333 25.6-231.253333 152.32-231.253333 301.226666a21.333333 21.333333 0 0 0 42.666666 0c0-128 82.56-237.44 196.693334-259.2a216.96 216.96 0 0 1 81.28 0c113.706667 21.76 196.266667 130.773333 196.266666 258.986667z" fill="#ffffff" p-id="6841"></path><path d="M769.706667 185.813333a21.333333 21.333333 0 0 0-21.333334 21.333334c0 128-81.706667 235.733333-194.133333 258.773333a221.866667 221.866667 0 0 1-85.333333 0c-113.28-21.333333-195.413333-131.2-195.413334-258.986667a21.333333 21.333333 0 0 0-42.666666 0c0 149.333333 96.64 274.773333 229.973333 300.8a260.053333 260.053333 0 0 0 51.2 4.266667 245.12 245.12 0 0 0 51.626667-5.333333c132.266667-26.88 228.266667-153.173333 228.266666-300.373334a21.333333 21.333333 0 0 0-22.186666-20.48zM190.506667 172.373333H832a21.333333 21.333333 0 0 0 0-42.666666H190.506667a21.333333 21.333333 0 0 0 0 42.666666zM832 853.333333H190.506667a21.333333 21.333333 0 0 0 0 42.666667H832a21.333333 21.333333 0 0 0 0-42.666667z" fill="#ffffff" p-id="6842"></path><path d="M576 362.666667a21.333333 21.333333 0 0 0 0-42.666667h-128a21.333333 21.333333 0 0 0 0 42.666667zM448 661.333333a21.333333 21.333333 0 0 0 0 42.666667h128a21.333333 21.333333 0 0 0 0-42.666667z" fill="#ffffff" p-id="6843"></path></svg>