<svg t="1689489912766" class="icon" viewBox="0 0 1024 1024" version="1.1" xmlns="http://www.w3.org/2000/svg" p-id="10583" width="200" height="200"><path d="M928 641.5v-384c0-52.935-43.065-96-96-96H544v-32c0-17.673-14.327-32-32-32s-32 14.327-32 32v32H192c-52.935 0-96 43.065-96 96v384c0 52.935 43.065 96 96 96h49.746L105.373 873.873c-12.497 12.497-12.497 32.758 0 45.255 6.248 6.249 14.438 9.373 22.627 9.373s16.379-3.124 22.627-9.373L332.254 737.5h359.491l181.627 181.627c6.248 6.249 14.438 9.373 22.627 9.373s16.379-3.124 22.627-9.373c12.497-12.497 12.497-32.758 0-45.255L782.254 737.5H832c52.935 0 96-43.065 96-96z m-768 0v-384c0-17.645 14.355-32 32-32h640c17.645 0 32 14.355 32 32v384c0 17.645-14.355 32-32 32H192c-17.645 0-32-14.355-32-32z" p-id="10584" fill="#ffffff"></path><path d="M512 289.5c-17.673 0-32 14.327-32 32v256c0 17.673 14.327 32 32 32 17.673 0 32-14.327 32-32v-256c0-17.673-14.327-32-32-32zM320 449.5c-17.673 0-32 14.327-32 32v96c0 17.673 14.327 32 32 32s32-14.327 32-32v-96c0-17.673-14.327-32-32-32zM704 385.5c-17.673 0-32 14.327-32 32v160c0 17.673 14.327 32 32 32s32-14.327 32-32v-160c0-17.673-14.327-32-32-32z" p-id="10585" fill="#ffffff"></path></svg>