<svg t="1689490549372" class="icon" viewBox="0 0 1024 1024" version="1.1" xmlns="http://www.w3.org/2000/svg" p-id="22535" width="200" height="200"><path d="M963.413333 349.013333L554.666667 61.44a74.24 74.24 0 0 0-85.333334 0L60.586667 349.013333a42.666667 42.666667 0 0 0-10.24 59.733334 42.666667 42.666667 0 0 0 59.733333 10.24L512 135.253333l401.92 283.733334A42.666667 42.666667 0 0 0 938.666667 426.666667a42.666667 42.666667 0 0 0 34.986666-17.92 42.666667 42.666667 0 0 0-10.24-59.733334zM853.333333 448a42.666667 42.666667 0 0 0-42.666666 42.666667V896H213.333333v-405.333333a42.666667 42.666667 0 0 0-85.333333 0v410.453333A80.64 80.64 0 0 0 208.64 981.333333h606.72A80.64 80.64 0 0 0 896 901.12V490.666667a42.666667 42.666667 0 0 0-42.666667-42.666667z" p-id="22536" fill="#ffffff"></path><path d="M682.666667 832a64 64 0 0 0 64-64v-85.333333a64 64 0 0 0-64-64h-85.333334a64 64 0 0 0-64 64v85.333333a64 64 0 0 0 64 64zM576 768v-85.333333a21.333333 21.333333 0 0 1 21.333333-21.333334h85.333334a21.333333 21.333333 0 0 1 21.333333 21.333334v85.333333a21.333333 21.333333 0 0 1-21.333333 21.333333h-85.333334a21.333333 21.333333 0 0 1-21.333333-21.333333zM341.333333 576h85.333334a64 64 0 0 0 64-64v-85.333333A64 64 0 0 0 426.666667 362.666667H341.333333A64 64 0 0 0 277.333333 426.666667v85.333333A64 64 0 0 0 341.333333 576zM320 426.666667a21.333333 21.333333 0 0 1 21.333333-21.333334h85.333334a21.333333 21.333333 0 0 1 21.333333 21.333334v85.333333a21.333333 21.333333 0 0 1-21.333333 21.333333H341.333333a21.333333 21.333333 0 0 1-21.333333-21.333333zM277.333333 768A64 64 0 0 0 341.333333 832h85.333334a64 64 0 0 0 64-64v-85.333333a64 64 0 0 0-64-64H341.333333A64 64 0 0 0 277.333333 682.666667z m42.666667-85.333333a21.333333 21.333333 0 0 1 21.333333-21.333334h85.333334a21.333333 21.333333 0 0 1 21.333333 21.333334v85.333333a21.333333 21.333333 0 0 1-21.333333 21.333333H341.333333a21.333333 21.333333 0 0 1-21.333333-21.333333z" p-id="22537" fill="#ffffff"></path></svg>