<svg t="1689227230243" class="icon" viewBox="0 0 1083 1024" version="1.1" xmlns="http://www.w3.org/2000/svg" p-id="19145" width="200" height="200"><path d="M182.212809 1.811237c8.630012-1.669179 17.437595-1.006243 26.162312-1.100948C436.03459 0.698451 663.694058 0.733965 891.341688 0.698451c18.656925 0.568231 36.946867 8.32222 50.406844 21.225803 14.075561 13.317919 22.812116 32.105064 23.80652 51.472278 0.426173 6.321572-0.390659 12.631306-0.710289 18.952878-2.107191 36.970543-5.587607 73.870058-10.55963 110.568324 27.180393-0.023676 54.348948 0 81.517503-0.011838 15.969665-0.13022 31.596023 8.854936 39.563098 22.681896 6.120324 10.074266 6.996347 22.220208 7.173919 33.715052 0.50904 54.52652-16.679954 109.467376-50.063537 152.783168-24.220855 31.832786-57.261133 57.190104-94.906451 70.969711-19.189642 7.10289-39.503908 10.74904-59.889203 11.909179-24.38659 59.096046-55.142104 115.883653-94.231676 166.598289-27.440832 35.360555-59.249942 67.761572-96.398058 92.964994-34.330636 23.463214-73.739838 40.119491-115.126011 45.541364 0 54.408139-0.011838 108.828116 0.011838 163.236254h107.549595c6.795098-0.071029 13.637549 2.166382 18.929203 6.475469 12.749688 9.754636 14.821364 29.997873 4.900994 42.451607-5.149595 6.91348-13.448139 10.55963-21.794035 11.767121H402.426081c-9.435006-1.053595-18.739792-5.717827-23.80652-13.980855-4.557688-6.937156-5.63496-15.756578-3.930266-23.771006 2.142705-9.612578 9.446844-17.828254 18.704277-21.142937 5.516578-2.166382 11.565873-1.811237 17.378405-1.799399 33.584832 0 67.169665 0.011838 100.754497 0 0.035514-54.443653 0.023676-108.875468 0.011838-163.307283-15.318566-2.201896-30.495075-5.563931-45.162543-10.55963-38.78178-13.021965-73.941087-35.32504-104.613734-62.162127-32.708809-28.743029-60.682358-62.540948-84.903214-98.635468-28.139283-42.001757-51.247353-87.223491-70.732948-133.830289-34.247769-1.124624-68.116717-11.471168-97.143861-29.666405-32.25896-19.817064-58.610682-48.619283-77.030844-81.576693C9.719121 343.756208-0.828671 297.693965 0.828671 252.188116c0.757642-7.694798 1.432416-15.626358 4.936508-22.65822 6.996347-15.507977 23.238289-26.280694 40.273387-26.600324 27.890682-0.059191 55.793202 0 83.695723-0.023676-5.433711-40.226035-9.103538-80.688832-11.127861-121.222659-0.733965-16.25378 3.634312-32.732486 12.654982-46.310844 11.459329-17.520462 30.305665-30.009711 50.951399-33.561156m-16.301133 76.237688c1.290358 30.068902 3.859237 60.066775 7.185758 89.98178 11.636902 101.476624 34.141225 202.136416 72.023306 297.161249 19.142289 47.61304 42.226682 93.793665 70.697433 136.553063 25.08504 37.455908 54.455491 72.520509 89.934428 100.588763 30.104416 23.818358 65.169017 42.36874 103.204994 49.270382 27.369803 5.05489 55.828717 3.598798 82.642128-3.788208 23.581595-6.510983 45.860994-17.260023 66.23445-30.731838 34.224092-22.622705 63.263075-52.300948 88.300763-84.619099 27.204069-35.277688 49.897803-73.870058 69.265018-113.942196 18.822659-38.971191 34.437179-79.445827 47.553849-120.666266 32.815353-103.832416 49.909642-212.246197 55.331515-320.873064-0.011838-15.010775-13.104832-28.458913-28.103769-28.932439-177.595931 0.023676-355.203699-0.011838-532.79963 0.023676-0.023676 56.823121 0.011838 113.658081-0.011838 170.481203-23.190936-19.308023-46.33452-38.663399-69.525457-57.959584-23.096231 19.213318-46.14511 38.497665-69.241341 57.722821-0.082867-56.763931 0.094705-113.527861-0.094705-170.291792-8.476116 0.177572-16.964069-0.142058-25.440185 0.094705-15.022613 0.994405-27.594728 14.892393-27.156717 29.926844m100.103399-29.31126c-0.165734 22.800277-0.035514 45.612393-0.071029 68.41267 7.327815-6.037457 14.584601-12.181457 21.912416-18.230751 7.387006 6.155838 14.750335 12.335353 22.161018 18.467514 0-22.871306 0.011838-45.742613 0-68.613919-14.667468-0.023676-29.334936 0.047353-44.002405-0.035514M48.83237 250.258497c0.165734 12.453734-0.947052 24.978497 0.82867 37.349364 4.960185 39.941919 21.853225 78.652671 49.270382 108.295399 23.119908 25.262613 54.266081 43.599908 88.19422 49.412439-22.456971-63.369618-38.710751-128.83459-50.146405-195.045364-29.382289-0.023676-58.764578-0.011838-88.146867-0.011838m898.290682-0.023676c-11.577711 66.139746-27.748624 131.569202-50.134566 194.915144 35.822243-6.368925 68.35348-26.706867 91.757502-54.277919 26.825249-31.335584 42.569988-71.573457 45.695261-112.592647 0.153896-9.340301-0.059191-18.680601-0.082867-28.020902-29.074497-0.011838-58.160832 0.035514-87.23533-0.023676z" p-id="19146" fill="#ffffff"></path><path d="M521.92037 139.524439c6.215029-6.747746 15.93415-9.991399 24.966659-8.334057 8.772069 1.420578 16.561572 7.434358 20.302428 15.4843 15.910474 32.25896 31.868301 64.494243 47.74326 96.776879 32.649618 4.806289 65.311075 9.482358 97.972532 14.253133 7.256786 1.08911 15.10548 1.467931 21.237641 6.01378 9.707283 6.451792 14.347838 19.39089 10.973965 30.542428-1.515283 5.563931-5.007538 10.346543-9.245595 14.170266-25.191584 24.587838-50.477873 49.069133-75.574751 73.751676 5.563931 31.974844 10.973965 63.985202 16.478705 95.971884 0.757642 5.173272 2.119029 10.287353 2.249248 15.543492 0.18941 10.192647-5.895399 20.113017-14.951583 24.718057-7.884208 4.190705-17.780902 4.143353-25.653272-0.035514-32.093225-16.810173-64.139098-33.738728-96.220486-50.572578-32.081387 16.822012-64.115422 33.738728-96.220485 50.537064-7.576416 3.96578-16.916717 4.048647-24.623353 0.366982-11.00948-5.05489-17.686197-17.875607-15.436948-29.796624 6.084809-35.620994 12.145942-71.241988 18.313619-106.839306-25.890035-25.440185-52.040509-50.619931-77.966058-76.024602-5.421873-5.386358-8.38141-13.092994-8.038104-20.728601 0.31963-12.666821 10.346543-24.197179 22.883144-26.185988 36.059006-5.362682 72.165364-10.453087 108.236209-15.780255 15.271214-30.992277 30.58978-61.972717 45.872832-92.964994 1.846751-3.835561 3.693503-7.777665 6.700393-10.867422m-21.154775 147.148208c-30.885734 4.498497-61.771468 8.949642-92.645364 13.448139 22.20837 21.88874 44.724532 43.493364 66.968416 65.34659-5.137757 30.802867-10.87926 61.534705-15.567167 92.384925 27.488185-14.65563 55.130266-29.015306 82.677641-43.540717 27.701272 14.52541 55.367029 29.133688 83.068301 43.670936-5.267977-30.791029-10.524116-61.593896-15.839445-92.373086 22.137341-21.900578 44.771884-43.315792 66.743491-65.382105-30.873896-4.522173-61.771468-8.937803-92.645364-13.483653-13.82696-27.843329-27.417156-55.816879-41.374335-83.589179-14.063723 27.689434-27.523699 55.710335-41.386174 83.51815z" p-id="19147" fill="#ffffff"></path></svg>