<svg t="1688694472619" class="icon" viewBox="0 0 1024 1024" version="1.1" xmlns="http://www.w3.org/2000/svg" p-id="37757" width="200" height="200"><path d="M824.32 220.8l96 166.4-88.96 51.2c-20.48 11.84-33.28 33.92-32 57.6 0.32 5.44 0.64 10.56 0.64 16s-0.32 10.56-0.64 16c-1.28 23.68 11.52 45.76 32 57.6l88.96 51.2-96 166.4-88.96-51.52c-21.44-12.16-47.36-10.56-68.16 2.56-7.36 4.8-15.04 9.28-23.04 13.44-21.76 11.2-36.16 32.96-36.16 57.6V928h-192v-102.72c0-24.64-14.4-46.4-36.16-57.6-8-4.16-15.68-8.64-23.04-13.44-20.8-13.12-46.72-14.72-68.16-2.56L199.68 803.2l-96-166.4 88.96-51.2c20.48-11.84 33.28-33.92 32-57.6-0.32-5.44-0.64-10.56-0.64-16s0.32-10.56 0.64-16c1.28-23.68-11.52-45.76-32-57.6l-88.96-51.2 96-166.4 88.96 51.52c21.44 12.16 47.36 10.56 68.16-2.56 7.36-4.8 15.04-9.28 23.04-13.44 21.76-11.2 36.16-32.96 36.16-57.6V96h192v102.72c0 24.64 14.4 46.4 36.16 57.6 8 4.16 15.68 8.64 23.04 13.44 20.8 13.12 46.72 14.72 68.16 2.56l88.96-51.52z" fill="#ffffff" p-id="37758"></path><path d="M608 928v-102.72c0-24.32 14.08-46.08 35.84-57.6 8-4.16 16-8.64 23.36-13.44 20.8-13.12 46.72-14.72 68.16-2.56l88.96 51.52 84.16-145.92-13.12-7.68c-16.64-9.6-27.84-26.24-30.72-44.8l-33.92-19.52a62.848 62.848 0 0 1-31.36-57.6c0.32-5.44 0.64-10.24 0.64-15.68 0-5.44-0.32-10.24-0.64-15.68-1.28-23.68 10.88-45.76 31.36-57.6l89.6-51.52-52.16-90.56-68.8 39.68c-21.44 12.16-47.36 10.56-68.16-2.56-7.36-4.8-15.04-9.28-23.04-13.44-18.88-9.6-31.36-27.2-34.56-47.68-1.92-0.96-4.16-1.6-6.4-2.88-7.36-4.8-15.36-9.28-23.36-13.44-21.76-11.52-35.84-33.28-35.84-57.6V160h-96c-17.6 0-32 14.4-32 32v70.72c0 24.32-14.08 46.08-35.84 57.6-8 4.16-16 8.64-23.36 13.44-20.8 13.12-46.72 14.72-68.16 2.56L291.52 300.8c-15.36-8.96-34.88-3.52-43.84 11.84l-68.16 118.4 13.12 7.68c16.64 9.6 27.84 26.24 30.72 44.8l33.92 19.52c20.48 11.84 32.64 34.24 31.36 57.6-0.32 5.12-0.64 9.92-0.64 15.36 0 5.44 0.32 10.24 0.64 15.68 1.28 23.68-10.88 45.76-31.36 57.6L195.52 684.8c-15.36 8.96-20.48 28.48-11.84 43.84l36.16 63.04 68.8-39.68c21.44-12.16 47.36-10.56 68.16 2.56 7.36 4.8 15.04 9.28 23.04 13.44 18.88 9.6 31.36 27.2 34.56 47.68 1.92 0.96 4.16 1.6 6.4 2.88 4.48 2.88-1.6 18.24-4.8 30.4V864c21.76 11.2 0 39.36 0 64h192z" fill="#ffffff" p-id="37759"></path><path d="M512 512m-128 0a128 128 0 1 0 256 0 128 128 0 1 0-256 0Z" fill="#ffffff" p-id="37760"></path><path d="M448 576c0 18.88 4.16 36.48 11.52 52.48 16 7.36 33.6 11.52 52.48 11.52 70.72 0 128-57.28 128-128 0-18.88-4.16-36.48-11.52-52.48-16-7.36-33.6-11.52-52.48-11.52-70.72 0-128 57.28-128 128z" fill="#ffffff" p-id="37761"></path><path d="M608 960h-192c-17.6 0-32-14.4-32-32v-102.72c0-12.16-7.36-23.04-18.88-29.12-8.96-4.8-17.6-9.6-25.92-15.04-10.88-7.04-24.32-7.68-34.88-1.6l-88.64 51.2a32.224 32.224 0 0 1-43.84-11.52l-96-166.4c-4.16-7.36-5.44-16-3.2-24.32s7.68-15.04 15.04-19.52l88.96-51.2c10.56-6.08 16.64-16.96 16-28.16-0.32-5.76-0.64-11.52-0.64-17.6s0.32-11.84 0.64-17.92a30.784 30.784 0 0 0-16-28.16l-88.96-51.2a31.936 31.936 0 0 1-11.84-43.84l96-166.4c4.48-7.04 11.52-12.48 19.52-14.72s16.96-0.96 24.32 3.2l88.96 51.52c10.56 5.76 23.68 5.12 35.2-1.92 8-5.12 16.32-10.24 25.28-14.72 11.52-6.08 18.88-17.28 18.88-29.12V96c0-17.6 14.4-32 32-32h192c17.6 0 32 14.4 32 32v102.72c0 12.16 7.36 23.04 18.88 29.12 8.96 4.8 17.6 9.6 25.92 15.04 10.88 7.04 24.32 7.68 34.88 1.6l88.64-51.2a32.224 32.224 0 0 1 43.84 11.52l27.52 48c8.96 15.36 3.52 34.88-11.84 43.84s-34.88 3.52-43.84-11.84l-11.52-20.16-61.12 35.52c-31.36 17.92-70.08 16.64-101.12-3.2-6.72-4.48-13.76-8.32-20.8-12.16C596.48 267.84 576 234.88 576 198.72V128h-128v70.72c0 36.16-20.48 69.12-53.44 86.08-7.04 3.52-13.76 7.68-20.16 11.84-31.68 19.84-70.4 21.12-101.44 3.52L211.52 264.64l-64 110.72 61.12 35.2c31.68 18.24 49.92 51.52 48 87.04-0.32 5.12-0.64 9.6-0.64 14.4s0.32 9.28 0.64 13.76c1.92 35.84-16.32 69.12-48 87.36l-61.12 35.2 64 110.72 61.12-35.52c31.36-17.92 70.08-16.64 101.12 3.2 6.72 4.48 13.76 8.32 20.8 12.16 32.96 16.96 53.44 49.92 53.44 86.08V896h128v-70.72c0-36.16 20.48-69.12 53.44-86.08 7.04-3.52 13.76-7.68 20.16-11.84 31.68-19.84 70.4-21.12 101.44-3.52l61.44 35.52 64-110.72-61.12-35.2c-31.68-18.24-49.92-51.52-48-87.04 0.32-5.12 0.64-9.6 0.64-14.4s-0.32-9.28-0.64-13.76c-1.92-35.84 16.32-69.12 48-87.36l61.44-35.2a31.84 31.84 0 0 1 13.12-41.28c15.36-8.96 34.88-3.52 43.84 11.84l14.72 25.28c4.16 7.36 5.44 16 3.2 24.32s-7.68 15.04-15.04 19.52l-88.96 51.2c-10.56 6.08-16.64 16.96-16 28.16 0 5.44 0.32 11.2 0.32 17.28s-0.32 11.84-0.64 17.92c-0.64 11.2 5.44 22.08 16 28.16l88.96 51.2a31.936 31.936 0 0 1 11.84 43.84l-96 166.4a31.936 31.936 0 0 1-43.84 11.84l-88.96-51.52c-10.56-5.76-23.68-5.12-35.2 1.92-8 5.12-16.32 10.24-25.28 14.72-11.52 5.76-18.88 16.96-18.88 28.8V928c0 17.6-14.4 32-32 32z" fill="#ffffff" p-id="37762"></path><path d="M512 672c-88.32 0-160-71.68-160-160s71.68-160 160-160 160 71.68 160 160-71.68 160-160 160z m0-256c-52.8 0-96 43.2-96 96s43.2 96 96 96 96-43.2 96-96-43.2-96-96-96z" fill="#ffffff" p-id="37763"></path></svg>